<?xml version="1.0" encoding="iso-8859-1"?>
<!-- Generator: Adobe Illustrator 19.0.0, SVG Export Plug-In . SVG Version: 6.00 Build 0)  -->
<svg version="1.1" id="Layer_1" xmlns="http://www.w3.org/2000/svg" xmlns:xlink="http://www.w3.org/1999/xlink" x="0px" y="0px"
	 viewBox="0 0 512 512" style="enable-background:new 0 0 512 512;" xml:space="preserve">
<circle style="fill:#ABCE2E;" cx="255.996" cy="255.997" r="255.996"/>
<path style="fill:#2D9627;" d="M512,256.001c0-19.142-2.118-37.787-6.102-55.73L381.32,75.692L75.691,381.32L200.27,505.898
	c17.943,3.984,36.588,6.101,55.73,6.101C397.385,512,512,397.385,512,256.001z"/>
<rect x="39.884" y="217.117" transform="matrix(-0.7071 0.7071 -0.7071 -0.7071 618.0284 255.998)" style="fill:#FFFFFF;" width="432.222" height="77.759"/>
<rect x="53.632" y="250.304" transform="matrix(-0.7071 0.7071 -0.7071 -0.7071 651.2181 269.7443)" style="fill:#E4E4E4;" width="432.222" height="38.88"/>
<rect x="383.686" y="74.715" transform="matrix(-0.7071 0.7071 -0.7071 -0.7071 760.4402 -87.7944)" style="fill:#D6954D;" width="29.434" height="77.759"/>
<rect x="397.44" y="107.89" transform="matrix(-0.7071 0.7071 -0.7071 -0.7071 793.635 -74.0637)" style="fill:#B27F4D;" width="29.434" height="38.89"/>
<rect x="83.561" y="322.561" transform="matrix(-0.7071 0.7071 -0.7071 -0.7071 512.5966 510.5576)" style="fill:#FFC536;" width="133.995" height="77.759"/>
<rect x="97.307" y="355.74" transform="matrix(-0.7071 0.7071 -0.7071 -0.7071 545.7766 524.2914)" style="fill:#FF8736;" width="133.995" height="38.88"/>
<g>
</g>
<g>
</g>
<g>
</g>
<g>
</g>
<g>
</g>
<g>
</g>
<g>
</g>
<g>
</g>
<g>
</g>
<g>
</g>
<g>
</g>
<g>
</g>
<g>
</g>
<g>
</g>
<g>
</g>
</svg>
